<?xml version="1.0" encoding="utf-8"?>
<!-- Generator: Adobe Illustrator 26.4.1, SVG Export Plug-In . SVG Version: 6.00 Build 0)  -->
<svg version="1.1" id="Layer_1" xmlns="http://www.w3.org/2000/svg" xmlns:xlink="http://www.w3.org/1999/xlink" x="0px" y="0px"
	 viewBox="0 0 1080 480.3" style="enable-background:new 0 0 1080 480.3;" xml:space="preserve">
<style type="text/css">
	.st0{fill:#003299;}
	.st1{fill:#C6FF00;}
	.st2{fill:#FF138E;}
</style>
<g>
	<polygon class="st0" points="152.8,352.7 195.2,234.4 114.2,250.2 79,145.4 241.3,129.5 246.5,194 235.6,318.7 303.4,291.3 
		317.8,373.5 175.2,410.9 	"/>
	<polygon class="st0" points="438.7,82.6 533.6,70.2 525.4,257.5 626.2,217.3 635,290.5 456.8,341.7 	"/>
	<polygon class="st0" points="536.9,139.1 612.5,103.8 623.8,231.9 545.5,237.4 	"/>
	<path class="st0" d="M551.2,135.9c-12.5,0-21.5-6.2-24-16.7c-4.3-18.2,13.9-43.2,41.4-56.9c10.7-5.4,20.3-8.1,28.5-8.1
		c13.2,0,22.9,7.2,25.2,18.8c3.4,17.1-11.2,42.7-44.9,56.6C567.4,133.8,558.6,135.9,551.2,135.9L551.2,135.9z"/>
	<polygon class="st0" points="799.4,290.8 795.2,306.9 719.8,288.1 738.2,128.1 805.6,141.4 827.1,201.4 827.1,115.5 885.5,113.7 
		869.8,329 806.8,329.2 	"/>
	<path class="st0" d="M861.7,378.2c-7.2,0-11.7-0.4-11.9-0.4l-9-0.8l-6.8-90.4l13.9,3c0.4,0.1,38.9,8.4,65.4,8.4
		c7.1,0,11.4-0.6,14-1.2c-3.2-2.2-8.5-5-12.4-7c-20.6-10.7-55.1-28.5-47.2-75.2c5.7-33.4,34.1-51.8,80.1-51.8
		c22.2,0,40.6,4.2,41.4,4.4l12.5,2.9l-37.4,85l-10.6-7.2c-4.3-2.9-12.4-7-17-7c-0.2,0-0.4,0-0.5,0c0,0,0,0.1-0.1,0.1
		c1.4,1.6,5.5,4.5,8.3,6.4c15.1,10.3,40.4,27.6,26.4,73.2C955.1,372.6,889.3,378.2,861.7,378.2z"/>
	<path class="st0" d="M407,340.7c-18.1,0-33.2-7.5-42.8-20.9c-7.7,4.3-16.3,7.7-25.8,10.1c-10.1,2.6-19.9,3.9-29.1,3.9
		c-39.1,0-67.9-24.3-75.2-63.4c-7.3-39.4,10.1-91,56.7-109c10.1-3.9,20.2-5.8,30.2-5.8c39.6,0,68.4,29.9,79.6,62.7
		c4.6-1.2,9.2-1.8,13.7-1.8c31.8,0,52,28.1,55.6,55.9c4.1,32.1-12.7,57.8-42.8,65.6C420.1,339.8,413.3,340.7,407,340.7L407,340.7z"
		/>
	<path class="st0" d="M768.3,388c-106.5-5.6-148.6-80.2-152.5-148.1c-3.7-65.2,25.7-123.8,65.7-130.5c4.2-0.7,8.4-1.1,12.2-1.1
		c15,0,27.5,5.5,36.2,15.9c21.2,25.3,13.7,71,12.8,76.2l-1.2,6.6l-64.2,17.4c11.2,65.3,66.1,70.5,83.3,70.5c1.7,0,2.8-0.1,2.9-0.1
		l10.7-0.7l0.7,10.7l5.4,83.8L768.3,388z"/>
	<polygon class="st0" points="248.2,160.2 316.2,61.1 331.1,129.5 262.9,175.1 212.5,210.5 	"/>
	<polygon class="st0" points="386.5,199.4 404.6,146.5 482.5,227 	"/>
</g>
<g>
	<path class="st1" d="M544.2,414.3c-1.9,0.1-3.7-0.2-5.3-1.1c-1.6-0.9-2.9-2.1-3.9-3.6s-1.6-3.3-1.7-5.3l-1-16.3
		c-0.1-1.9,0.2-3.7,1-5.3s1.9-3,3.4-4c1.5-1.1,3.2-1.6,5.1-1.8c1.9-0.1,3.7,0.2,5.2,1.1c1.6,0.8,2.9,2,3.9,3.6
		c1,1.5,1.6,3.3,1.7,5.2l0.1,2.4c0,0.1-0.1,0.2-0.2,0.2l-5.8,0.4c-0.1,0-0.2-0.1-0.2-0.2l-0.1-2.4c-0.1-1.1-0.5-2.1-1.3-2.9
		c-0.8-0.8-1.8-1.1-2.9-1.1c-1.2,0.1-2.2,0.6-2.8,1.5s-0.9,1.9-0.8,3l1,16.3c0.1,1.3,0.5,2.3,1.3,3.1s1.7,1.1,2.8,1s2-0.6,2.7-1.5
		s1-2,0.9-3.1l-0.1-2.4c0-0.1,0.1-0.2,0.2-0.2l5.9-0.4c0.1,0,0.2,0.1,0.2,0.2l0.1,2.4c0.1,2-0.2,3.8-1,5.4c-0.8,1.7-2,3-3.4,4.1
		C547.8,413.6,546.1,414.2,544.2,414.3z"/>
	<path class="st1" d="M555.4,410.9c-0.1,0-0.2-0.1-0.2-0.3l0.6-35.9c0-0.1,0.1-0.2,0.2-0.2l10.5,0.1c1.9,0,3.6,0.5,5.2,1.5
		c1.6,0.9,2.8,2.2,3.7,3.8s1.4,3.3,1.3,5.3c0,1.3-0.2,2.4-0.6,3.5c-0.4,1-0.9,1.9-1.4,2.6c-0.5,0.7-1,1.2-1.4,1.6
		c1.8,2.1,2.8,4.6,2.7,7.4l-0.1,10.7c0,0.2-0.1,0.3-0.3,0.3l-5.9-0.1c-0.1,0-0.2-0.1-0.2-0.2l0.1-10.8c0-1.3-0.4-2.3-1.3-3.3
		c-0.9-0.9-2-1.4-3.2-1.4h-3.4l-0.3,15.3c0,0.2-0.1,0.3-0.2,0.3L555.4,410.9z M561.9,389.1l4.5,0.1c1.1,0,2-0.4,2.9-1.2
		c0.8-0.8,1.3-1.8,1.3-2.9c0-1.1-0.4-2.1-1.2-2.9c-0.8-0.8-1.8-1.2-2.9-1.2l-4.5-0.1L561.9,389.1z"/>
	<path class="st1" d="M577.8,413.9c-0.1,0-0.2-0.1-0.2-0.3l4.2-35.6c0-0.1,0.1-0.2,0.2-0.2l16.6,2c0.1,0,0.2,0.1,0.2,0.3l-0.7,5.8
		c0,0.1-0.1,0.2-0.2,0.2l-10.6-1.2l-0.9,8.1l10.6,1.3c0.1,0,0.2,0.1,0.2,0.2l-0.6,5.9c0,0.1-0.1,0.2-0.2,0.2l-10.7-1.3l-1.1,9.1
		l10.7,1.3c0.1,0,0.2,0.1,0.2,0.3l-0.7,5.9c0,0.1-0.1,0.2-0.2,0.2L577.8,413.9z"/>
	<path class="st1" d="M599.2,409.6l1.2-36.4c0-0.1,0.1-0.2,0.2-0.2l7.5-1.1c0.1,0,0.2,0,0.3,0.2l11.3,34.6c0.1,0.2,0,0.3-0.2,0.3
		l-5.7,0.8c-0.1,0-0.2-0.1-0.3-0.2l-1.1-3.7l-7,1v3.9c0,0.2-0.1,0.3-0.2,0.3l-5.7,0.8C599.3,409.9,599.2,409.8,599.2,409.6z
		 M605.7,399.2l5-0.7l-4.2-14.2l-0.6-1.9l0.1,1.9L605.7,399.2z"/>
	<path class="st1" d="M620,416.6c-0.1,0-0.2-0.1-0.2-0.3l3.5-29.6l-6.7-0.8c-0.2,0-0.3-0.1-0.2-0.3l0.7-5.8c0-0.1,0.1-0.2,0.2-0.2
		l19.7,2.3c0.2,0,0.3,0.1,0.2,0.2l-0.7,5.8c0,0.2-0.1,0.2-0.2,0.2l-6.8-0.8l-3.4,29.6c0,0.2-0.1,0.3-0.2,0.2L620,416.6z"/>
	<path class="st1" d="M647.6,413.8c-1.8,0-3.5-0.5-5.1-1.5s-2.8-2.3-3.7-3.9c-0.9-1.6-1.3-3.4-1.3-5.3l0.4-26.1
		c0-0.1,0.1-0.2,0.2-0.2l5.8,0.1c0.1,0,0.2,0.1,0.2,0.2l-0.3,26.1c0,1.2,0.4,2.2,1.1,3c0.7,0.8,1.6,1.2,2.7,1.3c1.1,0,2-0.4,2.8-1.2
		s1.1-1.8,1.2-3l0.3-26.1c0-0.1,0.1-0.2,0.2-0.2l5.8,0.1c0.1,0,0.2,0.1,0.2,0.2l-0.2,26.1c0,2-0.5,3.7-1.4,5.3s-2.2,2.8-3.7,3.8
		C651.3,413.4,649.6,413.8,647.6,413.8z"/>
	<path class="st1" d="M659.2,419c-0.1,0-0.2-0.1-0.2-0.3l2.3-35.8c0-0.1,0.1-0.2,0.2-0.2l10.5,0.7c1.9,0.1,3.6,0.7,5.1,1.7
		s2.7,2.3,3.5,3.9c0.8,1.6,1.2,3.4,1.1,5.3c-0.1,1.3-0.3,2.4-0.8,3.4s-1,1.8-1.5,2.5c-0.6,0.7-1.1,1.2-1.5,1.5
		c1.7,2.2,2.5,4.7,2.4,7.5l-0.6,10.7c0,0.2-0.1,0.3-0.3,0.2l-5.9-0.4c-0.1,0-0.2-0.1-0.2-0.2l0.7-10.8c0.1-1.3-0.3-2.4-1.1-3.3
		c-0.8-1-1.9-1.5-3.2-1.6l-3.4-0.2l-1,15.3c0,0.2-0.1,0.3-0.2,0.2L659.2,419z M666.8,397.5l4.5,0.3c1.1,0.1,2.1-0.3,2.9-1
		s1.4-1.7,1.4-2.8c0.1-1.1-0.3-2.1-1-2.9c-0.8-0.8-1.7-1.3-2.8-1.4l-4.5-0.3L666.8,397.5z"/>
	<path class="st1" d="M682.8,423.9c-0.1,0-0.2-0.1-0.2-0.3l4.2-35.6c0-0.1,0.1-0.2,0.2-0.2l16.6,1.9c0.1,0,0.2,0.1,0.2,0.3l-0.7,5.8
		c0,0.1-0.1,0.2-0.2,0.2l-10.6-1.2l-0.9,8.1l10.6,1.2c0.1,0,0.2,0.1,0.2,0.2l-0.6,5.9c0,0.1-0.1,0.2-0.2,0.2l-10.7-1.3l-1.1,9.1
		l10.7,1.3c0.1,0,0.2,0.1,0.2,0.3l-0.7,5.9c0,0.1-0.1,0.2-0.2,0.2L682.8,423.9z"/>
	<path class="st1" d="M714.5,425.4c-1.9,0-3.6-0.4-5.2-1.3c-1.6-0.9-2.8-2.2-3.8-3.7c-1-1.6-1.5-3.3-1.5-5.2v-2.4
		c0-0.2,0.1-0.3,0.3-0.3l5.8-0.1c0.1,0,0.2,0.1,0.2,0.3v2.4c0,1.1,0.4,2.1,1.2,2.9s1.7,1.2,2.8,1.2s2-0.5,2.7-1.3
		c0.7-0.9,1.1-1.8,1.1-2.9c0-1.3-0.9-2.4-2.6-3.3c-0.6-0.3-1.4-0.8-2.6-1.4c-1.2-0.6-2.3-1.2-3.4-1.8c-1.9-1.1-3.4-2.5-4.3-4.1
		c-1-1.7-1.5-3.6-1.5-5.7c0-1.9,0.4-3.7,1.3-5.3s2.1-2.8,3.7-3.8c1.5-0.9,3.2-1.4,5-1.5c1.8,0,3.5,0.4,5.1,1.3
		c1.6,0.9,2.8,2.1,3.8,3.6s1.4,3.3,1.5,5.2l0.1,4.3c0,0.1-0.1,0.2-0.2,0.2l-5.8,0.1c-0.1,0-0.2-0.1-0.2-0.2l-0.1-4.3
		c0-1.2-0.4-2.2-1.2-2.9c-0.8-0.8-1.7-1.1-2.7-1.1c-1.1,0-2,0.4-2.7,1.3c-0.8,0.8-1.1,1.8-1.1,2.9c0,1.1,0.3,2.1,0.8,2.9
		c0.5,0.8,1.4,1.5,2.7,2.1c0.2,0.1,0.5,0.3,1,0.5c0.5,0.3,1.1,0.5,1.7,0.9c0.6,0.3,1.1,0.6,1.6,0.8s0.8,0.4,0.9,0.5
		c1.8,0.9,3.2,2.1,4.2,3.5s1.6,3.1,1.6,5.2c0,2-0.4,3.8-1.3,5.4c-0.9,1.6-2.1,2.9-3.6,3.8C718.1,424.8,716.4,425.3,714.5,425.4z"/>
	<path class="st1" d="M499.9,374.3c-1.9,0.1-3.7-0.3-5.2-1.2c-1.6-0.9-2.9-2.1-3.8-3.7c-1-1.6-1.5-3.3-1.6-5.3l-0.6-16.2
		c-0.1-1.9,0.3-3.7,1.1-5.3c0.8-1.6,2-2.9,3.5-3.9s3.2-1.6,5.1-1.6c1.9-0.1,3.6,0.3,5.2,1.2s2.8,2.1,3.8,3.6s1.5,3.3,1.6,5.2
		l0.1,2.4c0,0.1-0.1,0.2-0.2,0.2l-5.8,0.2c-0.1,0-0.2-0.1-0.2-0.2l-0.1-2.4c0-1.1-0.5-2.1-1.2-2.9c-0.8-0.8-1.7-1.2-2.8-1.1
		c-1.2,0-2.2,0.5-2.8,1.4c-0.6,0.9-0.9,1.9-0.9,3l0.6,16.2c0.1,1.3,0.5,2.3,1.2,3.1c0.8,0.8,1.7,1.1,2.8,1.1c1.1,0,2-0.5,2.7-1.4
		s1-1.9,1-3l-0.1-2.4c0-0.1,0.1-0.2,0.2-0.2l5.9-0.2c0.1,0,0.2,0.1,0.2,0.2l0.1,2.4c0.1,2-0.3,3.8-1.2,5.4c-0.9,1.6-2,3-3.5,4
		C503.5,373.6,501.8,374.2,499.9,374.3z"/>
	<path class="st1" d="M514.7,370.5c-0.1,0-0.2-0.1-0.2-0.2l-4.6-35.5c0-0.1,0-0.2,0.2-0.2l10.4-1.4c1.9-0.2,3.6,0,5.3,0.7
		s3.1,1.8,4.2,3.2c1.1,1.4,1.8,3.1,2.1,5c0.2,1.3,0.1,2.4-0.1,3.5c-0.2,1.1-0.6,2-1,2.8s-0.8,1.4-1.2,1.8c2.1,1.8,3.4,4.1,3.7,6.9
		l1.4,10.6c0,0.2-0.1,0.3-0.2,0.3l-5.8,0.8c-0.1,0-0.2,0-0.2-0.1l-1.4-10.7c-0.2-1.2-0.7-2.3-1.7-3c-1-0.8-2.1-1.1-3.4-0.9l-3.4,0.4
		l1.9,15.2c0,0.2,0,0.3-0.2,0.3L514.7,370.5z M518,348.1l4.4-0.6c1.1-0.1,2-0.7,2.7-1.6c0.7-0.9,1-1.9,0.9-3.1
		c-0.1-1.1-0.7-2-1.6-2.7c-0.9-0.7-1.9-1-3-0.8l-4.4,0.6L518,348.1z"/>
	<path class="st1" d="M535.1,364l7.7-35.5c0-0.1,0.1-0.2,0.3-0.2l7.5,0.3c0.1,0,0.2,0.1,0.3,0.2l4.9,36c0,0.2,0,0.3-0.2,0.3
		l-5.8-0.2c-0.1,0-0.2-0.1-0.2-0.3l-0.4-3.8l-7.1-0.2l-0.7,3.8c0,0.2-0.1,0.3-0.3,0.3l-5.8-0.2C535.2,364.3,535.1,364.2,535.1,364z
		 M543.3,354.9l5,0.2l-1.6-14.7l-0.2-1.9l-0.3,1.9L543.3,354.9z"/>
	<path class="st1" d="M558.2,368c-0.2,0-0.3-0.1-0.3-0.3l-0.2-5.7l11.8-24.9l-12.1,0.5c-0.1,0-0.2-0.1-0.2-0.2l-0.2-5.5
		c0-0.2,0.1-0.3,0.2-0.3l18.8-0.7c0.2,0,0.3,0.1,0.3,0.3l0.2,5.6l-11.7,24.7l12.5-0.5c0.1,0,0.2,0.1,0.2,0.3l0.3,5.6
		c0,0.2-0.1,0.3-0.2,0.3L558.2,368z"/>
	<path class="st1" d="M582.9,360.5c-0.1,0-0.2-0.1-0.2-0.2l-1.3-14.7l-8.9-20.3c0-0.1,0-0.2,0.1-0.2l5.8-0.5c0.2,0,0.3,0,0.3,0.2
		l5.1,13.6l2.6-14.3c0-0.1,0.1-0.2,0.2-0.2l5.8-0.5c0.1,0,0.2,0,0.2,0.2l-5.1,21.4l1.5,14.9c0,0.1,0,0.2-0.2,0.2L582.9,360.5z"/>
</g>
<polygon class="st2" points="121.3,238 93.4,154.7 231.5,141.1 235.9,194 223.5,335 295.2,306.1 305.7,365.7 181.7,398.2 
	164.1,352.6 211.6,220.4 "/>
<polygon class="st2" points="450,91.8 466.5,327.9 623.4,282.8 617.3,232.3 514.1,273.5 522.4,82.4 "/>
<polygon class="st2" points="548.1,145.6 555.1,226.1 612.2,222.1 603.2,119.9 "/>
<path class="st2" d="M573.5,71.8c-44.2,22.1-52.1,69.5,0,48S624.8,46.1,573.5,71.8z"/>
<polygon class="st2" points="731.5,280 747.5,140.8 797.6,150.7 837.6,262.4 837.8,125.8 874.1,124.7 859.9,318.4 815.6,318.5 
	801.1,243 787.5,294.1 "/>
<path class="st2" d="M986.9,177.6l-27,61.6c0,0-29.1-19.8-34.1,0s53.4,18.7,35.1,78.5c-17.6,57.3-110.2,49.5-110.2,49.5l-5-67.1
	c0,0,92,20.1,94.6-0.9c2.5-21-72.3-21.1-61.9-82.7S986.9,177.6,986.9,177.6z"/>
<path class="st2" d="M397.5,230.4c-1.4,0.5-2.8,1.2-4.1,1.8c-8.7-42.5-49.1-80-98.8-60.9c-78.7,30.3-69.1,176.3,41.1,148.3
	c13-3.3,23.6-8.5,32.1-14.8c7.7,18.4,26.4,30.7,56.6,22.9C488.5,311.1,457.3,207.4,397.5,230.4z M355,269.3
	c-10.4,0-18.8-8.4-18.8-18.8c0-10.4,8.4-18.8,18.8-18.8s18.8,8.4,18.8,18.8S365.4,269.3,355,269.3z M395.3,276.4
	c-5.9,0-10.7-4.8-10.7-10.7s4.8-10.7,10.7-10.7c5.9,0,10.7,4.8,10.7,10.7S401.2,276.4,395.3,276.4z"/>
<path class="st2" d="M764.2,305.5c0,0-89,6.7-98.8-88.9l66.8-18.1c0,0,16.1-89.6-49-78.6c-74.6,12.6-103,247.6,85.6,257.5
	L764.2,305.5z M684.6,160.5c22.7-13.5,22.7,19.4,22.7,19.4l-40.9,12.5C666.3,192.3,670,169.1,684.6,160.5z"/>
<polygon class="st2" points="311.1,87.4 319.2,124.7 257,166.3 "/>
<polygon class="st2" points="409.1,166.4 400.2,192.3 447.1,205.7 "/>
</svg>
